<svg width="81" height="15" viewBox="0 0 81 15" fill="none" xmlns="http://www.w3.org/2000/svg">
<path d="M28.5795 12.1364C27.9659 12.1364 27.4375 11.9915 26.9943 11.7017C26.5511 11.4119 26.2102 11.0128 25.9716 10.5043C25.733 9.99574 25.6136 9.41477 25.6136 8.76136C25.6136 8.09659 25.7358 7.50994 25.9801 7.00142C26.2273 6.49006 26.571 6.09091 27.0114 5.80398C27.4545 5.5142 27.9716 5.36932 28.5625 5.36932C29.0227 5.36932 29.4375 5.45455 29.8068 5.625C30.1761 5.79545 30.4787 6.03409 30.7145 6.34091C30.9503 6.64773 31.0966 7.00568 31.1534 7.41477H30.1477C30.071 7.11648 29.9006 6.85227 29.6364 6.62216C29.375 6.3892 29.0227 6.27273 28.5795 6.27273C28.1875 6.27273 27.8438 6.375 27.5483 6.57955C27.2557 6.78125 27.027 7.06676 26.8622 7.43608C26.7003 7.80256 26.6193 8.23295 26.6193 8.72727C26.6193 9.23295 26.6989 9.6733 26.858 10.0483C27.0199 10.4233 27.2472 10.7145 27.5398 10.9219C27.8352 11.1293 28.1818 11.233 28.5795 11.233C28.8409 11.233 29.0781 11.1875 29.2912 11.0966C29.5043 11.0057 29.6847 10.875 29.8324 10.7045C29.9801 10.5341 30.0852 10.3295 30.1477 10.0909H31.1534C31.0966 10.4773 30.956 10.8253 30.7315 11.1349C30.5099 11.4418 30.2159 11.6861 29.8494 11.8679C29.4858 12.0469 29.0625 12.1364 28.5795 12.1364ZM37.2599 6.92045L36.3565 7.17614C36.2997 7.02557 36.2159 6.87926 36.1051 6.73722C35.9972 6.59233 35.8494 6.47301 35.6619 6.37926C35.4744 6.28551 35.2344 6.23864 34.9418 6.23864C34.5412 6.23864 34.2074 6.33097 33.9403 6.51562C33.6761 6.69744 33.544 6.92898 33.544 7.21023C33.544 7.46023 33.6349 7.65767 33.8168 7.80256C33.9986 7.94744 34.2827 8.06818 34.669 8.16477L35.6406 8.40341C36.2259 8.54545 36.6619 8.76278 36.9489 9.0554C37.2358 9.34517 37.3793 9.71875 37.3793 10.1761C37.3793 10.5511 37.2713 10.8864 37.0554 11.1818C36.8423 11.4773 36.544 11.7102 36.1605 11.8807C35.777 12.0511 35.331 12.1364 34.8224 12.1364C34.1548 12.1364 33.6023 11.9915 33.1648 11.7017C32.7273 11.4119 32.4503 10.9886 32.3338 10.4318L33.2884 10.1932C33.3793 10.5455 33.5511 10.8097 33.804 10.9858C34.0597 11.1619 34.3935 11.25 34.8054 11.25C35.2741 11.25 35.6463 11.1506 35.9219 10.9517C36.2003 10.75 36.3395 10.5085 36.3395 10.2273C36.3395 10 36.2599 9.80966 36.1009 9.65625C35.9418 9.5 35.6974 9.38352 35.3679 9.30682L34.277 9.05114C33.6776 8.90909 33.2372 8.68892 32.956 8.39062C32.6776 8.08949 32.5384 7.71307 32.5384 7.26136C32.5384 6.89205 32.642 6.56534 32.8494 6.28125C33.0597 5.99716 33.3452 5.77415 33.706 5.61222C34.0696 5.45028 34.4815 5.36932 34.9418 5.36932C35.5895 5.36932 36.098 5.51136 36.4673 5.79545C36.8395 6.07955 37.1037 6.45455 37.2599 6.92045ZM43.5295 6.92045L42.6261 7.17614C42.5692 7.02557 42.4854 6.87926 42.3746 6.73722C42.2667 6.59233 42.119 6.47301 41.9315 6.37926C41.744 6.28551 41.5039 6.23864 41.2113 6.23864C40.8107 6.23864 40.4769 6.33097 40.2099 6.51562C39.9457 6.69744 39.8136 6.92898 39.8136 7.21023C39.8136 7.46023 39.9045 7.65767 40.0863 7.80256C40.2681 7.94744 40.5522 8.06818 40.9386 8.16477L41.9102 8.40341C42.4954 8.54545 42.9315 8.76278 43.2184 9.0554C43.5053 9.34517 43.6488 9.71875 43.6488 10.1761C43.6488 10.5511 43.5408 10.8864 43.3249 11.1818C43.1119 11.4773 42.8136 11.7102 42.43 11.8807C42.0465 12.0511 41.6005 12.1364 41.092 12.1364C40.4244 12.1364 39.8718 11.9915 39.4343 11.7017C38.9968 11.4119 38.7198 10.9886 38.6033 10.4318L39.5579 10.1932C39.6488 10.5455 39.8207 10.8097 40.0735 10.9858C40.3292 11.1619 40.663 11.25 41.0749 11.25C41.5437 11.25 41.9158 11.1506 42.1914 10.9517C42.4698 10.75 42.609 10.5085 42.609 10.2273C42.609 10 42.5295 9.80966 42.3704 9.65625C42.2113 9.5 41.967 9.38352 41.6374 9.30682L40.5465 9.05114C39.9471 8.90909 39.5067 8.68892 39.2255 8.39062C38.9471 8.08949 38.8079 7.71307 38.8079 7.26136C38.8079 6.89205 38.9116 6.56534 39.119 6.28125C39.3292 5.99716 39.6147 5.77415 39.9755 5.61222C40.3391 5.45028 40.7511 5.36932 41.2113 5.36932C41.859 5.36932 42.3675 5.51136 42.7369 5.79545C43.109 6.07955 43.3732 6.45455 43.5295 6.92045ZM48.9126 7.78977V8.72727H45.0945V7.78977H48.9126ZM52.6083 12.1534C52.1935 12.1534 51.8171 12.0753 51.479 11.919C51.141 11.7599 50.8725 11.5312 50.6737 11.233C50.4748 10.9318 50.3754 10.5682 50.3754 10.142C50.3754 9.76705 50.4492 9.46307 50.5969 9.23011C50.7447 8.99432 50.9421 8.80966 51.1893 8.67614C51.4364 8.54261 51.7092 8.44318 52.0075 8.37784C52.3086 8.30966 52.6112 8.25568 52.9151 8.21591C53.3129 8.16477 53.6353 8.12642 53.8825 8.10085C54.1325 8.07244 54.3143 8.02557 54.4279 7.96023C54.5444 7.89489 54.6026 7.78125 54.6026 7.61932V7.58523C54.6026 7.16477 54.4876 6.83807 54.2575 6.60511C54.0302 6.37216 53.685 6.25568 53.2219 6.25568C52.7418 6.25568 52.3654 6.3608 52.0927 6.57102C51.82 6.78125 51.6282 7.00568 51.5174 7.24432L50.5629 6.90341C50.7333 6.50568 50.9606 6.19602 51.2447 5.97443C51.5316 5.75 51.8441 5.59375 52.1822 5.50568C52.5231 5.41477 52.8583 5.36932 53.1879 5.36932C53.3981 5.36932 53.6396 5.39489 53.9123 5.44602C54.1879 5.49432 54.4535 5.59517 54.7092 5.74858C54.9677 5.90199 55.1822 6.13352 55.3526 6.44318C55.5231 6.75284 55.6083 7.16761 55.6083 7.6875V12H54.6026V11.1136H54.5515C54.4833 11.2557 54.3697 11.4077 54.2106 11.5696C54.0515 11.7315 53.8398 11.8693 53.5756 11.983C53.3114 12.0966 52.989 12.1534 52.6083 12.1534ZM52.7617 11.25C53.1594 11.25 53.4947 11.1719 53.7674 11.0156C54.043 10.8594 54.2504 10.6577 54.3896 10.4105C54.5316 10.1634 54.6026 9.90341 54.6026 9.63068V8.71023C54.56 8.76136 54.4663 8.80824 54.3214 8.85085C54.1793 8.89062 54.0146 8.92614 53.8271 8.95739C53.6424 8.9858 53.462 9.01136 53.2859 9.03409C53.1126 9.05398 52.9719 9.07102 52.864 9.08523C52.6026 9.11932 52.3583 9.17472 52.131 9.25142C51.9066 9.32528 51.7248 9.4375 51.5856 9.58807C51.4492 9.7358 51.381 9.9375 51.381 10.1932C51.381 10.5426 51.5103 10.8068 51.7688 10.9858C52.0302 11.1619 52.3612 11.25 52.7617 11.25ZM61.5689 9.32386V5.45455H62.5746V12H61.5689V10.892H61.5007C61.3473 11.2244 61.1087 11.5071 60.7848 11.7401C60.4609 11.9702 60.0518 12.0852 59.5575 12.0852C59.1484 12.0852 58.7848 11.9957 58.4666 11.8168C58.1484 11.6349 57.8984 11.3622 57.7166 10.9986C57.5348 10.6321 57.4439 10.1705 57.4439 9.61364V5.45455H58.4496V9.54545C58.4496 10.0227 58.5831 10.4034 58.8501 10.6875C59.12 10.9716 59.4638 11.1136 59.8814 11.1136C60.1314 11.1136 60.3857 11.0497 60.6442 10.9219C60.9055 10.794 61.1243 10.598 61.3004 10.3338C61.4794 10.0696 61.5689 9.73295 61.5689 9.32386ZM66.8881 12.1364C66.3427 12.1364 65.8612 11.9986 65.4435 11.723C65.0259 11.4446 64.6992 11.0526 64.4634 10.5469C64.2276 10.0384 64.1097 9.4375 64.1097 8.74432C64.1097 8.05682 64.2276 7.46023 64.4634 6.95455C64.6992 6.44886 65.0273 6.05824 65.4478 5.78267C65.8683 5.5071 66.354 5.36932 66.9052 5.36932C67.3313 5.36932 67.668 5.44034 67.9151 5.58239C68.1651 5.72159 68.3555 5.88068 68.4862 6.05966C68.6197 6.2358 68.7234 6.38068 68.7972 6.49432H68.8825V3.27273H69.8881V12H68.9165V10.9943H68.7972C68.7234 11.1136 68.6183 11.2642 68.4819 11.446C68.3455 11.625 68.1509 11.7855 67.8981 11.9276C67.6452 12.0668 67.3086 12.1364 66.8881 12.1364ZM67.0245 11.233C67.4279 11.233 67.7688 11.1278 68.0472 10.9176C68.3256 10.7045 68.5373 10.4105 68.6822 10.0355C68.8271 9.65767 68.8995 9.22159 68.8995 8.72727C68.8995 8.23864 68.8285 7.81108 68.6864 7.4446C68.5444 7.07528 68.3342 6.78835 68.0558 6.58381C67.7773 6.37642 67.4336 6.27273 67.0245 6.27273C66.5984 6.27273 66.2433 6.3821 65.9592 6.60085C65.6779 6.81676 65.4663 7.1108 65.3242 7.48295C65.185 7.85227 65.1154 8.26705 65.1154 8.72727C65.1154 9.19318 65.1864 9.61648 65.3285 9.99716C65.4734 10.375 65.6864 10.6761 65.9677 10.9006C66.2518 11.1222 66.604 11.233 67.0245 11.233ZM71.8697 12V5.45455H72.8754V12H71.8697ZM72.381 4.36364C72.185 4.36364 72.016 4.29688 71.8739 4.16335C71.7347 4.02983 71.6651 3.86932 71.6651 3.68182C71.6651 3.49432 71.7347 3.33381 71.8739 3.20028C72.016 3.06676 72.185 3 72.381 3C72.5771 3 72.7447 3.06676 72.8839 3.20028C73.0259 3.33381 73.0969 3.49432 73.0969 3.68182C73.0969 3.86932 73.0259 4.02983 72.8839 4.16335C72.7447 4.29688 72.5771 4.36364 72.381 4.36364ZM77.3764 12.1364C76.7855 12.1364 76.267 11.9957 75.821 11.7145C75.3778 11.4332 75.0312 11.0398 74.7812 10.5341C74.5341 10.0284 74.4105 9.4375 74.4105 8.76136C74.4105 8.07955 74.5341 7.48437 74.7812 6.97585C75.0312 6.46733 75.3778 6.07244 75.821 5.79119C76.267 5.50994 76.7855 5.36932 77.3764 5.36932C77.9673 5.36932 78.4844 5.50994 78.9276 5.79119C79.3736 6.07244 79.7202 6.46733 79.9673 6.97585C80.2173 7.48437 80.3423 8.07955 80.3423 8.76136C80.3423 9.4375 80.2173 10.0284 79.9673 10.5341C79.7202 11.0398 79.3736 11.4332 78.9276 11.7145C78.4844 11.9957 77.9673 12.1364 77.3764 12.1364ZM77.3764 11.233C77.8253 11.233 78.1946 11.1179 78.4844 10.8878C78.7741 10.6577 78.9886 10.3551 79.1278 9.98011C79.267 9.60511 79.3366 9.19886 79.3366 8.76136C79.3366 8.32386 79.267 7.91619 79.1278 7.53835C78.9886 7.16051 78.7741 6.85511 78.4844 6.62216C78.1946 6.3892 77.8253 6.27273 77.3764 6.27273C76.9276 6.27273 76.5582 6.3892 76.2685 6.62216C75.9787 6.85511 75.7642 7.16051 75.625 7.53835C75.4858 7.91619 75.4162 8.32386 75.4162 8.76136C75.4162 9.19886 75.4858 9.60511 75.625 9.98011C75.7642 10.3551 75.9787 10.6577 76.2685 10.8878C76.5582 11.1179 76.9276 11.233 77.3764 11.233Z" fill="white"/>
<rect y="7" width="2" height="5" fill="#4444FF"/>
<rect x="3" y="4" width="2" height="9" fill="#4444FF"/>
<rect x="6" y="2" width="2" height="10" fill="#4444FF"/>
<rect x="9" y="4" width="2" height="11" fill="#4444FF"/>
<rect x="12" y="1" width="2" height="11" fill="#4444FF"/>
<rect x="15" y="5" width="2" height="8" fill="#4444FF"/>
<rect x="18" y="6" width="2" height="6" fill="#4444FF"/>
</svg>
